{
  "source": "C:\\Users\\Peter\\Desktop\\stuff\\MIUN\\quantitative_research\\video_compression\\videos\\UVG\\ReadySteadyGo_1920x1080_120fps_420_8bit_YUV.y4m",
  "output": "C:\\Users\\Peter\\Desktop\\stuff\\MIUN\\quantitative_research\\video_compression\\compressed_videos\\UVG\\vp9\\12\\ReadySteadyGo_1920x1080_120fps_420_8bit_YUV_vp9.webm",
  "codec": "vp9",
  "ok": "[yuv4mpegpipe @ 0000024e590a5500] Stream #0: not enough frames to estimate rate; consider increasing probesize\nInput #0, yuv4mpegpipe, from 'C:\\Users\\Peter\\Desktop\\stuff\\MIUN\\quantitative_research\\video_compression\\videos\\UVG\\ReadySteadyGo_1920x1080_120fps_420_8bit_YUV.y4m':\n  Duration: 00:00:05.00, start: 0.000000, bitrate: 2985989 kb/s\n  Stream #0:0: Video: rawvideo (I420 / 0x30323449), yuv420p(progressive), 1920x1080, 120 fps, 120 tbr, 120 tbn\n[out#0/webm @ 0000024e590aa040] Codec AVOption b:a (set bitrate (in bits/s)) has not been used for any stream. The most likely reason is either wrong type (e.g. a video option with no video streams) or that it is a private option of some decoder which was not actually used for any stream.\nStream mapping:\n  Stream #0:0 -> #0:0 (rawvideo (native) -> vp9 (libvpx-vp9))\nPress [q] to stop, [?] for help\n[libvpx-vp9 @ 0000024e590ac540] v1.15.2-100-g40561f514\nOutput #0, webm, to 'C:\\Users\\Peter\\Desktop\\stuff\\MIUN\\quantitative_research\\video_compression\\compressed_videos\\UVG\\vp9\\12\\ReadySteadyGo_1920x1080_120fps_420_8bit_YUV_vp9.webm':\n  Metadata:\n    encoder         : Lavf62.3.100\n  Stream #0:0: Video: vp9, yuv420p(tv, progressive), 1920x1080, q=2-31, 12000 kb/s, 120 fps, 1k tbn\n    Metadata:\n      encoder         : Lavc62.11.100 libvpx-vp9\n    Side data:\n      cpb: bitrate max/min/avg: 0/0/0 buffer size: 12000000 vbv_delay: N/A\nframe=    0 fps=0.0 q=0.0 size=       0KiB time=N/A bitrate=N/A speed=N/A elapsed=0:00:01.22    \nframe=    2 fps=1.1 q=31.0 size=       0KiB time=00:00:00.00 bitrate= 461.8kbits/s speed=0.00451x elapsed=0:00:01.84    \nframe=    5 fps=2.0 q=39.0 size=       0KiB time=00:00:00.04 bitrate=  92.4kbits/s speed=0.0164x elapsed=0:00:02.53    \nframe=    7 fps=2.2 q=37.0 size=       0KiB time=00:00:00.05 bitrate=  66.0kbits/s speed=0.0186x elapsed=0:00:03.14    \nframe=   10 fps=2.7 q=37.0 size=       0KiB time=00:00:00.08 bitrate=  46.2kbits/s speed=0.0225x elapsed=0:00:03.70    \nframe=   14 fps=3.3 q=37.0 size=       0KiB time=00:00:00.11 bitrate=  33.0kbits/s speed=0.0274x elapsed=0:00:04.25    \nframe=   16 fps=3.3 q=28.0 size=       0KiB time=00:00:00.13 bitrate=  28.9kbits/s speed=0.0277x elapsed=0:00:04.81    \nframe=   19 fps=3.5 q=36.0 size=       0KiB time=00:00:00.15 bitrate=  25.7kbits/s speed=0.0277x elapsed=0:00:05.40    \nframe=   20 fps=3.3 q=37.0 size=       0KiB time=00:00:00.16 bitrate=  23.1kbits/s speed=0.0278x elapsed=0:00:05.99    \nframe=   22 fps=3.4 q=38.0 size=       0KiB time=00:00:00.17 bitrate=  22.0kbits/s speed=0.0268x elapsed=0:00:06.51    \nframe=   23 fps=3.2 q=38.0 size=       0KiB time=00:00:00.19 bitrate=  20.1kbits/s speed=0.027x elapsed=0:00:07.10    \nframe=   25 fps=3.3 q=39.0 size=       0KiB time=00:00:00.20 bitrate=  18.5kbits/s speed=0.0273x elapsed=0:00:07.62    \nframe=   27 fps=3.3 q=39.0 size=       0KiB time=00:00:00.22 bitrate=  17.1kbits/s speed=0.0276x elapsed=0:00:08.13    \nframe=   29 fps=3.3 q=39.0 size=       0KiB time=00:00:00.24 bitrate=  15.9kbits/s speed=0.0275x elapsed=0:00:08.78    \nframe=   30 fps=3.2 q=39.0 size=       0KiB time=00:00:00.25 bitrate=  15.4kbits/s speed=0.0266x elapsed=0:00:09.38    \nframe=   33 fps=3.3 q=38.0 size=       0KiB time=00:00:00.26 bitrate=  14.4kbits/s speed=0.0268x elapsed=0:00:09.94    \nframe=   35 fps=3.3 q=37.0 size=       0KiB time=00:00:00.29 bitrate=  13.2kbits/s speed=0.0275x elapsed=0:00:10.60    \nframe=   38 fps=3.4 q=38.0 size=       0KiB time=00:00:00.31 bitrate=  12.2kbits/s speed=0.0284x elapsed=0:00:11.14    \nframe=   41 fps=3.5 q=37.0 size=       0KiB time=00:00:00.33 bitrate=  11.5kbits/s speed=0.0284x elapsed=0:00:11.74    \nframe=   43 fps=3.5 q=38.0 size=       0KiB time=00:00:00.35 bitrate=  10.7kbits/s speed=0.0291x elapsed=0:00:12.30    \nframe=   45 fps=3.5 q=38.0 size=       0KiB time=00:00:00.37 bitrate=  10.3kbits/s speed=0.0292x elapsed=0:00:12.85    \nframe=   47 fps=3.5 q=40.0 size=       0KiB time=00:00:00.39 bitrate=   9.8kbits/s speed=0.029x elapsed=0:00:13.50    \nframe=   50 fps=3.5 q=39.0 size=       0KiB time=00:00:00.41 bitrate=   9.2kbits/s speed=0.0293x elapsed=0:00:14.20    \nframe=   53 fps=3.6 q=38.0 size=       0KiB time=00:00:00.44 bitrate=   8.7kbits/s speed=0.0296x elapsed=0:00:14.90    \nframe=   56 fps=3.6 q=39.0 size=       0KiB time=00:00:00.46 bitrate=   8.2kbits/s speed=0.0301x elapsed=0:00:15.50    \nframe=   59 fps=3.7 q=39.0 size=       0KiB time=00:00:00.49 bitrate=   7.8kbits/s speed=0.0304x elapsed=0:00:16.15    \nframe=   62 fps=3.7 q=34.0 size=       0KiB time=00:00:00.50 bitrate=   7.6kbits/s speed=0.0303x elapsed=0:00:16.78    \nframe=   64 fps=3.7 q=33.0 size=       0KiB time=00:00:00.53 bitrate=   7.2kbits/s speed=0.0305x elapsed=0:00:17.48    \nframe=   68 fps=3.8 q=34.0 size=       0KiB time=00:00:00.55 bitrate=   6.9kbits/s speed=0.0308x elapsed=0:00:18.09    \nframe=   72 fps=3.8 q=34.0 size=       0KiB time=00:00:00.59 bitrate=   6.5kbits/s speed=0.0314x elapsed=0:00:18.85    \nframe=   75 fps=3.9 q=35.0 size=       0KiB time=00:00:00.62 bitrate=   6.2kbits/s speed=0.0322x elapsed=0:00:19.41    \nframe=   79 fps=3.9 q=37.0 size=       0KiB time=00:00:00.65 bitrate=   5.8kbits/s speed=0.0329x elapsed=0:00:20.01    \nframe=   82 fps=4.0 q=37.0 size=       0KiB time=00:00:00.68 bitrate=   5.6kbits/s speed=0.0332x elapsed=0:00:20.61    \nframe=   85 fps=4.0 q=37.0 size=       0KiB time=00:00:00.70 bitrate=   5.5kbits/s speed=0.0329x elapsed=0:00:21.30    \nframe=   88 fps=4.0 q=37.0 size=       0KiB time=00:00:00.73 bitrate=   5.2kbits/s speed=0.0331x elapsed=0:00:22.13    \nframe=   90 fps=4.0 q=25.0 size=       0KiB time=00:00:00.75 bitrate=   5.1kbits/s speed=0.0329x elapsed=0:00:22.78    \nframe=   94 fps=4.0 q=37.0 size=       0KiB time=00:00:00.77 bitrate=   5.0kbits/s speed=0.0332x elapsed=0:00:23.35    \nframe=   96 fps=4.0 q=37.0 size=       0KiB time=00:00:00.80 bitrate=   4.8kbits/s speed=0.0333x elapsed=0:00:24.03    \nframe=  100 fps=4.1 q=38.0 size=       0KiB time=00:00:00.83 bitrate=   4.6kbits/s speed=0.0338x elapsed=0:00:24.66    \nframe=  103 fps=4.1 q=39.0 size=       0KiB time=00:00:00.85 bitrate=   4.5kbits/s speed=0.034x elapsed=0:00:25.24    \nframe=  106 fps=4.1 q=39.0 size=       0KiB time=00:00:00.88 bitrate=   4.4kbits/s speed=0.0341x elapsed=0:00:25.86    \nframe=  110 fps=4.2 q=39.0 size=       0KiB time=00:00:00.90 bitrate=   4.2kbits/s speed=0.0343x elapsed=0:00:26.46    \nframe=  111 fps=4.1 q=27.0 size=       0KiB time=00:00:00.92 bitrate=   4.2kbits/s speed=0.0341x elapsed=0:00:27.12    \nframe=  115 fps=4.2 q=40.0 size=       0KiB time=00:00:00.95 bitrate=   4.1kbits/s speed=0.0343x elapsed=0:00:27.70    \nframe=  117 fps=4.1 q=40.0 size=       0KiB time=00:00:00.97 bitrate=   3.9kbits/s speed=0.0344x elapsed=0:00:28.34    \nframe=  121 fps=4.2 q=41.0 size=       0KiB time=00:00:01.00 bitrate=   3.8kbits/s speed=0.0348x elapsed=0:00:28.95    \nframe=  124 fps=4.2 q=40.0 size=       0KiB time=00:00:01.03 bitrate=   3.7kbits/s speed=0.035x elapsed=0:00:29.49    \nframe=  128 fps=4.3 q=39.0 size=       0KiB time=00:00:01.06 bitrate=   3.6kbits/s speed=0.0355x elapsed=0:00:30.03    \nframe=  132 fps=4.3 q=38.0 size=    1280KiB time=00:00:01.10 bitrate=9532.5kbits/s speed=0.0359x elapsed=0:00:30.61    \nframe=  135 fps=4.3 q=39.0 size=    1280KiB time=00:00:01.12 bitrate=9320.7kbits/s speed=0.0361x elapsed=0:00:31.17    \nframe=  139 fps=4.4 q=38.0 size=    1280KiB time=00:00:01.15 bitrate=9052.5kbits/s speed=0.0364x elapsed=0:00:31.85    \nframe=  142 fps=4.4 q=38.0 size=    1280KiB time=00:00:01.18 bitrate=8861.2kbits/s speed=0.0364x elapsed=0:00:32.55    \nframe=  146 fps=4.4 q=39.0 size=    1280KiB time=00:00:01.21 bitrate=8618.4kbits/s speed=0.0367x elapsed=0:00:33.15    \nframe=  149 fps=4.4 q=40.0 size=    1280KiB time=00:00:01.24 bitrate=8444.9kbits/s speed=0.0368x elapsed=0:00:33.71    \nframe=  154 fps=4.5 q=41.0 size=    1280KiB time=00:00:01.28 bitrate=8170.7kbits/s speed=0.0375x elapsed=0:00:34.22    \nframe=  157 fps=4.5 q=28.0 size=    1280KiB time=00:00:01.30 bitrate=8014.6kbits/s speed=0.0376x elapsed=0:00:34.79    \nframe=  160 fps=4.5 q=40.0 size=    1280KiB time=00:00:01.33 bitrate=7864.3kbits/s speed=0.0378x elapsed=0:00:35.32    \nframe=  163 fps=4.5 q=40.0 size=    1280KiB time=00:00:01.35 bitrate=7719.6kbits/s speed=0.0378x elapsed=0:00:35.91    \nframe=  167 fps=4.6 q=40.0 size=    1280KiB time=00:00:01.38 bitrate=7580.1kbits/s speed=0.0378x elapsed=0:00:36.57    \nframe=  170 fps=4.6 q=41.0 size=    1280KiB time=00:00:01.41 bitrate=7401.7kbits/s speed=0.0381x elapsed=0:00:37.14    \nframe=  174 fps=4.6 q=41.0 size=    1280KiB time=00:00:01.45 bitrate=7231.6kbits/s speed=0.0384x elapsed=0:00:37.74    \nframe=  177 fps=4.6 q=41.0 size=    1280KiB time=00:00:01.47 bitrate=7109.0kbits/s speed=0.0385x elapsed=0:00:38.31    \nframe=  181 fps=4.7 q=41.0 size=    1280KiB time=00:00:01.50 bitrate=6951.9kbits/s speed=0.0388x elapsed=0:00:38.87    \nframe=  184 fps=4.7 q=41.0 size=    1280KiB time=00:00:01.52 bitrate=6875.9kbits/s speed=0.0387x elapsed=0:00:39.37    \nframe=  187 fps=4.7 q=41.0 size=    1280KiB time=00:00:01.55 bitrate=6728.8kbits/s speed=0.039x elapsed=0:00:39.98    \nframe=  191 fps=4.7 q=43.0 size=    1280KiB time=00:00:01.58 bitrate=6622.6kbits/s speed=0.039x elapsed=0:00:40.56    \nframe=  194 fps=4.7 q=43.0 size=    1280KiB time=00:00:01.61 bitrate=6486.0kbits/s speed=0.0393x elapsed=0:00:41.11    \nframe=  198 fps=4.8 q=44.0 size=    1280KiB time=00:00:01.65 bitrate=6355.0kbits/s speed=0.0396x elapsed=0:00:41.65    \nframe=  202 fps=4.8 q=43.0 size=    1280KiB time=00:00:01.68 bitrate=6229.2kbits/s speed=0.0399x elapsed=0:00:42.22    \nframe=  205 fps=4.8 q=43.0 size=    1280KiB time=00:00:01.70 bitrate=6138.0kbits/s speed=0.0399x elapsed=0:00:42.83    \nframe=  209 fps=4.8 q=43.0 size=    1280KiB time=00:00:01.73 bitrate=6049.5kbits/s speed=0.0398x elapsed=0:00:43.51    \nframe=  212 fps=4.8 q=44.0 size=    1280KiB time=00:00:01.76 bitrate=5935.3kbits/s speed=0.0401x elapsed=0:00:44.10    \nframe=  215 fps=4.8 q=43.0 size=    1280KiB time=00:00:01.79 bitrate=5852.5kbits/s speed=0.0401x elapsed=0:00:44.72    \nframe=  219 fps=4.8 q=44.0 size=    1280KiB time=00:00:01.82 bitrate=5745.6kbits/s speed=0.0403x elapsed=0:00:45.27    \nframe=  223 fps=4.9 q=43.0 size=    1280KiB time=00:00:01.85 bitrate=5642.6kbits/s speed=0.0405x elapsed=0:00:45.86    \nframe=  226 fps=4.9 q=44.0 size=    1280KiB time=00:00:01.88 bitrate=5567.7kbits/s speed=0.0405x elapsed=0:00:46.46    \nframe=  230 fps=4.9 q=44.0 size=    1280KiB time=00:00:01.91 bitrate=5470.8kbits/s speed=0.0407x elapsed=0:00:47.04    \nframe=  233 fps=4.9 q=44.0 size=    1280KiB time=00:00:01.94 bitrate=5400.4kbits/s speed=0.0407x elapsed=0:00:47.70    \nframe=  237 fps=4.9 q=44.0 size=    1280KiB time=00:00:01.97 bitrate=5309.2kbits/s speed=0.0408x elapsed=0:00:48.35    \nframe=  240 fps=4.9 q=45.0 size=    1280KiB time=00:00:02.00 bitrate=5242.9kbits/s speed=0.0409x elapsed=0:00:48.89    \nframe=  244 fps=4.9 q=44.0 size=    1280KiB time=00:00:02.03 bitrate=5156.9kbits/s speed=0.0411x elapsed=0:00:49.43    \nframe=  247 fps=4.9 q=45.0 size=    1280KiB time=00:00:02.05 bitrate=5094.3kbits/s speed=0.0412x elapsed=0:00:49.99    \nframe=  250 fps=4.9 q=43.0 size=    1280KiB time=00:00:02.08 bitrate=5033.2kbits/s speed=0.0412x elapsed=0:00:50.56    \nframe=  254 fps=5.0 q=43.0 size=    1280KiB time=00:00:02.10 bitrate=4973.5kbits/s speed=0.0412x elapsed=0:00:51.18    \nframe=  256 fps=4.9 q=44.0 size=    1280KiB time=00:00:02.13 bitrate=4915.2kbits/s speed=0.0412x elapsed=0:00:51.77    \nframe=  261 fps=5.0 q=45.0 size=    2816KiB time=00:00:02.17 bitrate=10606.3kbits/s speed=0.0416x elapsed=0:00:52.29    \nframe=  265 fps=5.0 q=43.0 size=    2816KiB time=00:00:02.20 bitrate=10446.2kbits/s speed=0.0418x elapsed=0:00:52.89    \nframe=  268 fps=5.0 q=42.0 size=    2816KiB time=00:00:02.23 bitrate=10329.3kbits/s speed=0.0418x elapsed=0:00:53.47    \nframe=  271 fps=5.0 q=42.0 size=    2816KiB time=00:00:02.25 bitrate=10214.9kbits/s speed=0.0418x elapsed=0:00:54.04    \nframe=  274 fps=5.0 q=42.0 size=    2816KiB time=00:00:02.28 bitrate=10103.1kbits/s speed=0.0418x elapsed=0:00:54.58    \nframe=  277 fps=5.0 q=43.0 size=    2816KiB time=00:00:02.30 bitrate=9993.6kbits/s speed=0.0418x elapsed=0:00:55.16    \nframe=  280 fps=5.0 q=43.0 size=    2816KiB time=00:00:02.33 bitrate=9886.6kbits/s speed=0.0419x elapsed=0:00:55.74    \nframe=  284 fps=5.0 q=42.0 size=    2816KiB time=00:00:02.36 bitrate=9747.3kbits/s speed=0.0421x elapsed=0:00:56.25    \nframe=  288 fps=5.1 q=43.0 size=    2816KiB time=00:00:02.40 bitrate=9611.9kbits/s speed=0.0422x elapsed=0:00:56.87    \nframe=  291 fps=5.1 q=43.0 size=    2816KiB time=00:00:02.42 bitrate=9512.9kbits/s speed=0.0422x elapsed=0:00:57.48    \nframe=  294 fps=5.1 q=30.0 size=    2816KiB time=00:00:02.45 bitrate=9415.8kbits/s speed=0.0422x elapsed=0:00:58.11    \nframe=  298 fps=5.1 q=45.0 size=    2816KiB time=00:00:02.48 bitrate=9289.4kbits/s speed=0.0423x elapsed=0:00:58.70    \nframe=  302 fps=5.1 q=45.0 size=    2816KiB time=00:00:02.51 bitrate=9166.4kbits/s speed=0.0425x elapsed=0:00:59.23    \nframe=  306 fps=5.1 q=46.0 size=    2816KiB time=00:00:02.55 bitrate=9046.5kbits/s speed=0.0427x elapsed=0:00:59.76    \nframe=  309 fps=5.1 q=46.0 size=    2816KiB time=00:00:02.57 bitrate=8958.7kbits/s speed=0.0427x elapsed=0:01:00.29    \nframe=  312 fps=5.1 q=46.0 size=    2816KiB time=00:00:02.60 bitrate=8872.6kbits/s speed=0.0427x elapsed=0:01:00.95    \nframe=  314 fps=5.1 q=46.0 size=    2816KiB time=00:00:02.61 bitrate=8816.1kbits/s speed=0.0425x elapsed=0:01:01.50    \nframe=  318 fps=5.1 q=46.0 size=    2816KiB time=00:00:02.65 bitrate=8705.2kbits/s speed=0.0427x elapsed=0:01:02.04    \nframe=  321 fps=5.1 q=46.0 size=    2816KiB time=00:00:02.67 bitrate=8623.8kbits/s speed=0.0427x elapsed=0:01:02.60    \nframe=  325 fps=5.1 q=45.0 size=    2816KiB time=00:00:02.70 bitrate=8517.7kbits/s speed=0.0429x elapsed=0:01:03.12    \nframe=  328 fps=5.2 q=45.0 size=    2816KiB time=00:00:02.73 bitrate=8439.8kbits/s speed=0.0429x elapsed=0:01:03.65    \nframe=  332 fps=5.2 q=45.0 size=    2816KiB time=00:00:02.76 bitrate=8338.1kbits/s speed=0.0431x elapsed=0:01:04.25    \nframe=  335 fps=5.2 q=45.0 size=    2816KiB time=00:00:02.79 bitrate=8263.4kbits/s speed=0.043x elapsed=0:01:04.84    \nframe=  338 fps=5.2 q=45.0 size=    2816KiB time=00:00:02.81 bitrate=8190.1kbits/s speed=0.043x elapsed=0:01:05.44    \nframe=  342 fps=5.2 q=45.0 size=    2816KiB time=00:00:02.84 bitrate=8118.0kbits/s speed=0.0431x elapsed=0:01:05.95    \nframe=  345 fps=5.2 q=45.0 size=    2816KiB time=00:00:02.87 bitrate=8023.9kbits/s speed=0.0432x elapsed=0:01:06.50    \nframe=  348 fps=5.2 q=45.0 size=    2816KiB time=00:00:02.90 bitrate=7954.7kbits/s speed=0.0432x elapsed=0:01:07.09    \nframe=  351 fps=5.2 q=45.0 size=    2816KiB time=00:00:02.92 bitrate=7886.7kbits/s speed=0.0432x elapsed=0:01:07.67    \nframe=  354 fps=5.2 q=45.0 size=    2816KiB time=00:00:02.95 bitrate=7819.9kbits/s speed=0.0432x elapsed=0:01:08.28    \nframe=  357 fps=5.2 q=33.0 size=    2816KiB time=00:00:02.97 bitrate=7754.2kbits/s speed=0.0432x elapsed=0:01:08.81    \nframe=  361 fps=5.2 q=46.0 size=    2816KiB time=00:00:03.00 bitrate=7668.3kbits/s speed=0.0434x elapsed=0:01:09.36    \nframe=  364 fps=5.2 q=33.0 size=    2816KiB time=00:00:03.03 bitrate=7605.1kbits/s speed=0.0434x elapsed=0:01:09.94    \nframe=  367 fps=5.2 q=46.0 size=    2816KiB time=00:00:03.05 bitrate=7542.9kbits/s speed=0.0434x elapsed=0:01:10.49    \nframe=  370 fps=5.2 q=46.0 size=    2816KiB time=00:00:03.08 bitrate=7481.7kbits/s speed=0.0434x elapsed=0:01:11.11    \nframe=  374 fps=5.2 q=46.0 size=    2816KiB time=00:00:03.10 bitrate=7421.6kbits/s speed=0.0433x elapsed=0:01:11.73    \nframe=  377 fps=5.2 q=46.0 size=    2816KiB time=00:00:03.14 bitrate=7342.8kbits/s speed=0.0434x elapsed=0:01:12.32    \nframe=  380 fps=5.2 q=46.0 size=    2816KiB time=00:00:03.16 bitrate=7284.8kbits/s speed=0.0434x elapsed=0:01:12.91    \nframe=  384 fps=5.2 q=46.0 size=    2816KiB time=00:00:03.20 bitrate=7209.0kbits/s speed=0.0436x elapsed=0:01:13.43    \nframe=  388 fps=5.2 q=46.0 size=    4352KiB time=00:00:03.22 bitrate=11054.8kbits/s speed=0.0436x elapsed=0:01:14.00    \nframe=  391 fps=5.2 q=47.0 size=    4352KiB time=00:00:03.25 bitrate=10941.7kbits/s speed=0.0436x elapsed=0:01:14.70    \nframe=  395 fps=5.2 q=47.0 size=    4352KiB time=00:00:03.29 bitrate=10830.9kbits/s speed=0.0437x elapsed=0:01:15.24    \nframe=  398 fps=5.2 q=48.0 size=    4352KiB time=00:00:03.31 bitrate=10749.2kbits/s speed=0.0437x elapsed=0:01:15.81    \nframe=  402 fps=5.3 q=48.0 size=    4352KiB time=00:00:03.35 bitrate=10642.3kbits/s speed=0.0439x elapsed=0:01:16.37    \nframe=  406 fps=5.3 q=35.0 size=    4352KiB time=00:00:03.37 bitrate=10563.4kbits/s speed=0.0439x elapsed=0:01:16.91    \nframe=  409 fps=5.3 q=47.0 size=    4352KiB time=00:00:03.40 bitrate=10485.8kbits/s speed=0.0439x elapsed=0:01:17.50    \nframe=  412 fps=5.3 q=48.0 size=    4352KiB time=00:00:03.43 bitrate=10384.0kbits/s speed=0.0439x elapsed=0:01:18.18    \nframe=  415 fps=5.3 q=47.0 size=    4352KiB time=00:00:03.45 bitrate=10308.9kbits/s speed=0.0439x elapsed=0:01:18.79    \nframe=  419 fps=5.3 q=48.0 size=    4352KiB time=00:00:03.49 bitrate=10210.5kbits/s speed=0.044x elapsed=0:01:19.31    \nframe=  422 fps=5.3 q=47.0 size=    4352KiB time=00:00:03.51 bitrate=10137.9kbits/s speed=0.044x elapsed=0:01:19.91    \nframe=  426 fps=5.3 q=47.0 size=    4352KiB time=00:00:03.55 bitrate=10042.7kbits/s speed=0.0441x elapsed=0:01:20.52    \nframe=  429 fps=5.3 q=47.0 size=    4352KiB time=00:00:03.57 bitrate=9972.5kbits/s speed=0.044x elapsed=0:01:21.22    \nframe=  432 fps=5.3 q=47.0 size=    4352KiB time=00:00:03.60 bitrate=9903.2kbits/s speed=0.044x elapsed=0:01:21.76    \nframe=  435 fps=5.3 q=47.0 size=    4352KiB time=00:00:03.62 bitrate=9834.9kbits/s speed=0.0441x elapsed=0:01:22.29    \nframe=  439 fps=5.3 q=47.0 size=    4352KiB time=00:00:03.65 bitrate=9745.3kbits/s speed=0.0441x elapsed=0:01:22.88    \nframe=  442 fps=5.3 q=47.0 size=    4352KiB time=00:00:03.68 bitrate=9679.2kbits/s speed=0.0441x elapsed=0:01:23.45    \nframe=  446 fps=5.3 q=47.0 size=    4352KiB time=00:00:03.71 bitrate=9592.4kbits/s speed=0.0442x elapsed=0:01:24.01    \nframe=  448 fps=5.3 q=34.0 size=    4352KiB time=00:00:03.73 bitrate=9549.5kbits/s speed=0.0441x elapsed=0:01:24.63    \nframe=  452 fps=5.3 q=47.0 size=    4352KiB time=00:00:03.75 bitrate=9486.0kbits/s speed=0.0441x elapsed=0:01:25.16    \nframe=  454 fps=5.3 q=47.0 size=    4352KiB time=00:00:03.78 bitrate=9423.3kbits/s speed=0.0441x elapsed=0:01:25.74    \nframe=  458 fps=5.3 q=47.0 size=    4352KiB time=00:00:03.81 bitrate=9341.0kbits/s speed=0.0442x elapsed=0:01:26.28    \nframe=  461 fps=5.3 q=47.0 size=    4352KiB time=00:00:03.84 bitrate=9280.2kbits/s speed=0.0442x elapsed=0:01:26.86    \nframe=  466 fps=5.3 q=46.0 size=    4352KiB time=00:00:03.87 bitrate=9200.4kbits/s speed=0.0443x elapsed=0:01:27.43    \nframe=  468 fps=5.3 q=46.0 size=    4352KiB time=00:00:03.90 bitrate=9141.4kbits/s speed=0.0442x elapsed=0:01:28.17    \nframe=  472 fps=5.3 q=46.0 size=    4352KiB time=00:00:03.93 bitrate=9064.0kbits/s speed=0.0443x elapsed=0:01:28.74    \nframe=  475 fps=5.3 q=46.0 size=    4352KiB time=00:00:03.95 bitrate=9006.7kbits/s speed=0.0443x elapsed=0:01:29.37    \nframe=  479 fps=5.3 q=45.0 size=    4352KiB time=00:00:03.99 bitrate=8931.5kbits/s speed=0.0444x elapsed=0:01:29.93    \nframe=  482 fps=5.3 q=45.0 size=    4352KiB time=00:00:04.01 bitrate=8875.9kbits/s speed=0.0444x elapsed=0:01:30.49    \nframe=  485 fps=5.3 q=45.0 size=    4352KiB time=00:00:04.04 bitrate=8821.0kbits/s speed=0.0444x elapsed=0:01:31.08    \nframe=  488 fps=5.3 q=45.0 size=    4352KiB time=00:00:04.06 bitrate=8766.8kbits/s speed=0.0444x elapsed=0:01:31.68    \nframe=  491 fps=5.3 q=45.0 size=    4352KiB time=00:00:04.09 bitrate=8713.2kbits/s speed=0.0443x elapsed=0:01:32.26    \nframe=  494 fps=5.3 q=44.0 size=    4352KiB time=00:00:04.11 bitrate=8660.3kbits/s speed=0.0443x elapsed=0:01:32.84    \nframe=  497 fps=5.3 q=32.0 size=    4352KiB time=00:00:04.14 bitrate=8608.0kbits/s speed=0.0444x elapsed=0:01:33.36    \nframe=  500 fps=5.3 q=44.0 size=    4352KiB time=00:00:04.16 bitrate=8556.4kbits/s speed=0.0444x elapsed=0:01:33.87    \nframe=  503 fps=5.3 q=43.0 size=    4352KiB time=00:00:04.19 bitrate=8505.3kbits/s speed=0.0444x elapsed=0:01:34.48    \nframe=  505 fps=5.3 q=42.0 size=    4352KiB time=00:00:04.20 bitrate=8471.7kbits/s speed=0.0443x elapsed=0:01:35.08    \nframe=  509 fps=5.3 q=42.0 size=    4352KiB time=00:00:04.23 bitrate=8421.6kbits/s speed=0.0443x elapsed=0:01:35.60    \nframe=  512 fps=5.3 q=42.0 size=    4352KiB time=00:00:04.26 bitrate=8355.8kbits/s speed=0.0444x elapsed=0:01:36.16    \nframe=  516 fps=5.3 q=43.0 size=    5888KiB time=00:00:04.29 bitrate=11239.1kbits/s speed=0.0444x elapsed=0:01:36.71    \nframe=  519 fps=5.3 q=43.0 size=    5888KiB time=00:00:04.32 bitrate=11152.5kbits/s speed=0.0444x elapsed=0:01:37.34    \nframe=  522 fps=5.3 q=41.0 size=    5888KiB time=00:00:04.35 bitrate=11088.4kbits/s speed=0.0444x elapsed=0:01:38.08    \nframe=  525 fps=5.3 q=41.0 size=    5888KiB time=00:00:04.37 bitrate=11025.0kbits/s speed=0.0443x elapsed=0:01:38.65    \nframe=  528 fps=5.3 q=41.0 size=    5888KiB time=00:00:04.40 bitrate=10962.4kbits/s speed=0.0443x elapsed=0:01:39.23    \nframe=  531 fps=5.3 q=41.0 size=    5888KiB time=00:00:04.42 bitrate=10900.5kbits/s speed=0.0444x elapsed=0:01:39.77    \nframe=  534 fps=5.3 q=41.0 size=    5888KiB time=00:00:04.45 bitrate=10839.2kbits/s speed=0.0444x elapsed=0:01:40.33    \nframe=  537 fps=5.3 q=40.0 size=    5888KiB time=00:00:04.47 bitrate=10778.7kbits/s speed=0.0443x elapsed=0:01:40.95    \nframe=  540 fps=5.3 q=40.0 size=    5888KiB time=00:00:04.50 bitrate=10718.8kbits/s speed=0.0443x elapsed=0:01:41.53    \nframe=  543 fps=5.3 q=39.0 size=    5888KiB time=00:00:04.52 bitrate=10659.6kbits/s speed=0.0443x elapsed=0:01:42.14    \nframe=  546 fps=5.3 q=39.0 size=    5888KiB time=00:00:04.55 bitrate=10601.0kbits/s speed=0.0443x elapsed=0:01:42.71    \nframe=  549 fps=5.3 q=40.0 size=    5888KiB time=00:00:04.57 bitrate=10543.1kbits/s speed=0.0443x elapsed=0:01:43.25    \nframe=  553 fps=5.3 q=39.0 size=    5888KiB time=00:00:04.60 bitrate=10485.8kbits/s speed=0.0443x elapsed=0:01:43.83    \nframe=  555 fps=5.3 q=39.0 size=    5888KiB time=00:00:04.62 bitrate=10429.1kbits/s speed=0.0443x elapsed=0:01:44.46    \nframe=  558 fps=5.3 q=39.0 size=    5888KiB time=00:00:04.65 bitrate=10373.0kbits/s speed=0.0443x elapsed=0:01:44.99    \nframe=  562 fps=5.3 q=39.0 size=    5888KiB time=00:00:04.67 bitrate=10317.5kbits/s speed=0.0443x elapsed=0:01:45.54    \nframe=  565 fps=5.3 q=31.0 size=    5888KiB time=00:00:04.70 bitrate=10244.5kbits/s speed=0.0444x elapsed=0:01:46.11    \nframe=  569 fps=5.3 q=40.0 size=    5888KiB time=00:00:04.74 bitrate=10172.5kbits/s speed=0.0445x elapsed=0:01:46.63    \nframe=  571 fps=5.3 q=39.0 size=    5888KiB time=00:00:04.75 bitrate=10136.8kbits/s speed=0.0443x elapsed=0:01:47.29    \nframe=  575 fps=5.3 q=38.0 size=    5888KiB time=00:00:04.79 bitrate=10066.3kbits/s speed=0.0444x elapsed=0:01:47.96    \nframe=  576 fps=5.3 q=38.0 size=    5888KiB time=00:00:04.80 bitrate=10048.9kbits/s speed=0.0442x elapsed=0:01:48.51    \nframe=  576 fps=5.3 q=38.0 size=    5888KiB time=00:00:04.80 bitrate=10048.9kbits/s speed=0.044x elapsed=0:01:49.06    \nframe=  576 fps=5.3 q=38.0 size=    5888KiB time=00:00:04.80 bitrate=10048.9kbits/s speed=0.0438x elapsed=0:01:49.58    \nframe=  576 fps=5.2 q=38.0 size=    5888KiB time=00:00:04.80 bitrate=10048.9kbits/s speed=0.0436x elapsed=0:01:50.14    \nframe=  576 fps=5.2 q=38.0 size=    5888KiB time=00:00:04.80 bitrate=10048.9kbits/s speed=0.0434x elapsed=0:01:50.68    \nframe=  576 fps=5.2 q=38.0 size=    5888KiB time=00:00:04.80 bitrate=10048.9kbits/s speed=0.0431x elapsed=0:01:51.36    \nframe=  576 fps=5.1 q=38.0 size=    5888KiB time=00:00:04.80 bitrate=10048.9kbits/s speed=0.0429x elapsed=0:01:51.99    \n[out#0/webm @ 0000024e590aa040] video:7042KiB audio:0KiB subtitle:0KiB other streams:0KiB global headers:0KiB muxing overhead: 0.068020%\nframe=  600 fps=5.4 q=34.0 Lsize=    7047KiB time=00:00:05.00 bitrate=11545.6kbits/s speed=0.0446x elapsed=0:01:52.01    \n",
  "seconds": 112.49159169197083,
  "probe_out": {}
}